<?xml version="1.0" encoding="utf-8"?>
<!-- Generator: Adobe Illustrator 22.1.0, SVG Export Plug-In . SVG Version: 6.00 Build 0)  -->
<svg version="1.1" id="Layer_1" xmlns="http://www.w3.org/2000/svg" xmlns:xlink="http://www.w3.org/1999/xlink" x="0px" y="0px"
	 viewBox="0 0 141.7 141.7" style="enable-background:new 0 0 141.7 141.7;" xml:space="preserve">
<style type="text/css">
	.st0{fill:#231F20;}
</style>
<path class="st0" d="M50.1,17.4v17.7c0,32.4-6.4,55.1-18.9,67.7L16,118l6.3,6.3l15.2-15.2c14.3-14.3,21.6-39.2,21.6-74V17.4H50.1z"
	/>
<path class="st0" d="M61.7,17.4v17.7c0,33.1-2.2,56.4-6.5,69.5c0,0-5.1,15.2-5.1,15.2l8.5,2.8l5.1-15.2c4.6-13.9,7-38.2,7-72.3V17.4
	H61.7z"/>
<path class="st0" d="M73.6,17.4v17.7c0,34.1,2.3,58.4,7,72.3c0,0,5.1,15.2,5.1,15.2l8.5-2.8L89,104.6c-4.3-13-6.5-36.4-6.5-69.5
	V17.4H73.6z"/>
<path class="st0" d="M85.4,17.4v17.7c0,34.8,7.3,59.7,21.6,74c0,0,15.2,15.2,15.2,15.2l6.3-6.3l-15.2-15.2
	c-12.6-12.6-18.9-35.4-18.9-67.7V17.4H85.4z"/>
</svg>
