<?xml version="1.0" encoding="utf-8"?>
<!-- Generator: Adobe Illustrator 22.1.0, SVG Export Plug-In . SVG Version: 6.00 Build 0)  -->
<svg version="1.1" id="Layer_1" xmlns="http://www.w3.org/2000/svg" xmlns:xlink="http://www.w3.org/1999/xlink" x="0px" y="0px"
	 viewBox="0 0 841.9 595.3" style="enable-background:new 0 0 841.9 595.3;" xml:space="preserve">
<style type="text/css">
	.Arched_x0020_Green{fill:url(#SVGID_1_);stroke:#FFFFFF;stroke-width:0.25;stroke-miterlimit:1;}
	.st0{fill:#002B64;}
</style>
<linearGradient id="SVGID_1_" gradientUnits="userSpaceOnUse" x1="0" y1="595.2803" x2="0.7071" y2="594.5732">
	<stop  offset="0" style="stop-color:#20AC4B"/>
	<stop  offset="0.9831" style="stop-color:#19361A"/>
</linearGradient>
<path class="st0" d="M191.7,553.6l-6.8,22.5H162l29.8-87.8h28.8l30.4,87.8h-23.7l-7.5-22.5H191.7z M216.5,538.8l-6.1-18.6
	c-1.6-5.2-3.3-11.9-4.8-16.9h-0.4c-1.3,5.2-2.9,11.9-4.3,16.9l-5.9,18.6H216.5z"/>
<path class="st0" d="M278.6,489.6c7.1-1.2,17.5-2,29.4-2c14.5,0,24.6,2,31.6,7c5.9,4.2,9.1,10.3,9.1,18.4c0,11.1-8.8,18.8-17.2,21.5
	v0.4c6.8,2.5,10.6,8.2,13,16.3c3,10,5.9,21.5,7.8,24.9h-22.6c-1.4-2.5-3.9-9.6-6.7-20.5c-2.8-11.1-6.9-13.9-16.1-14.1h-6.5v34.5
	h-21.9V489.6z M300.4,527.3h8.7c11,0,17.5-5,17.5-12.6c0-7.9-6.1-12.1-16.2-12.1c-5.4,0-8.4,0.3-10,0.7V527.3z"/>
<path class="st0" d="M378.9,488.3h21.9v38.8h0.3c2.2-3.4,4.5-6.5,6.8-9.6l22-29.2h27.2l-32.3,37.4l33.9,50.4H433l-24-37.9l-8.3,9.3
	v28.7h-21.9V488.3z"/>
<path class="st0" d="M506.7,553.6l-6.8,22.5H477l29.8-87.8h28.8l30.4,87.8h-23.7l-7.5-22.5H506.7z M531.5,538.8l-6.1-18.6
	c-1.6-5.2-3.3-11.9-4.8-16.9h-0.4c-1.3,5.2-2.9,11.9-4.3,16.9l-5.9,18.6H531.5z"/>
<path class="st0" d="M593.6,489.6c8.1-1.3,18.7-2,29.7-2c18.7,0,30.8,2.7,40.1,9.1c10.1,6.8,16.5,17.7,16.5,33.4
	c0,16.8-6.8,28.4-16.1,35.6c-10.3,7.7-26.1,11.3-45.2,11.3c-11.4,0-19.7-0.7-25-1.3V489.6z M615.6,561.2c1.9,0.4,5.1,0.4,7.7,0.4
	c20.1,0.1,33.3-9.8,33.3-30.7c0-18.9-11.9-27.9-31-27.9c-4.8,0-8.1,0.4-10,0.8V561.2z"/>
<path class="st0" d="M336.5,76.2V141c0,118.3-23.3,201.6-69.2,247.5L211.8,444l23.1,23.1l55.5-55.5c52.3-52.3,78.8-143.3,78.8-270.6
	V76.2H336.5z"/>
<path class="st0" d="M379,76.2V141c0,121.1-7.9,206.3-23.8,253.9c0,0-18.5,55.5-18.5,55.5l31,10.3l18.5-55.5
	c16.9-50.8,25.5-139.6,25.5-264.2V76.2H379z"/>
<path class="st0" d="M422.2,76.2V141c0,124.5,8.6,213.4,25.5,264.2c0,0,18.5,55.5,18.5,55.5l31-10.3l-18.5-55.5
	C462.8,347.4,454.8,262,454.8,141V76.2H422.2z"/>
<path class="st0" d="M465.4,76.2V141c0,127.3,26.5,218.3,78.8,270.6c0,0,55.5,55.5,55.5,55.5l23.1-23.1l-55.5-55.5
	C521.3,342.6,498,259.3,498,141V76.2H465.4z"/>
</svg>
