<?xml version="1.0" encoding="utf-8"?>
<!-- Generator: Adobe Illustrator 15.1.0, SVG Export Plug-In . SVG Version: 6.00 Build 0)  -->
<!DOCTYPE svg PUBLIC "-//W3C//DTD SVG 1.1//EN" "http://www.w3.org/Graphics/SVG/1.1/DTD/svg11.dtd">
<svg version="1.1" id="Layer_1" xmlns="http://www.w3.org/2000/svg" xmlns:xlink="http://www.w3.org/1999/xlink" x="0px" y="0px"
	 width="485.886px" height="461.699px" viewBox="0 0 485.886 461.699" enable-background="new 0 0 485.886 461.699"
	 xml:space="preserve">
<path fill="#231F20" d="M147.277,0v76.446c0,139.935-27.641,237.976-81.628,292.395L0,434.489l27.21,27.21l65.648-65.648
	c61.761-61.762,93.29-169.304,93.29-319.605V0H147.277z"/>
<path fill="#231F20" d="M197.378,0v76.446c0,142.958-9.502,243.591-28.074,300.169l-22.027,65.648l36.711,12.094l22.027-65.648
	c19.868-60.034,30.233-164.986,30.233-312.263V0H197.378z"/>
<path fill="#231F20" d="M248.773,0v76.446c0,147.277,9.934,252.229,30.233,312.263l22.026,65.648l36.712-12.094l-22.459-65.648
	c-18.571-56.146-28.073-157.211-28.073-300.169V0H248.773z"/>
<path fill="#231F20" d="M299.737,0v76.446c0,150.301,31.529,257.843,93.29,319.605l65.649,65.648l27.209-27.21l-65.648-65.648
	c-54.419-54.419-81.629-152.892-81.629-292.395V0H299.737z"/>
</svg>
