<?xml version="1.0" encoding="utf-8"?>
<!-- Generator: Adobe Illustrator 15.1.0, SVG Export Plug-In . SVG Version: 6.00 Build 0)  -->
<!DOCTYPE svg PUBLIC "-//W3C//DTD SVG 1.1//EN" "http://www.w3.org/Graphics/SVG/1.1/DTD/svg11.dtd">
<svg version="1.1" id="Layer_1" xmlns="http://www.w3.org/2000/svg" xmlns:xlink="http://www.w3.org/1999/xlink" x="0px" y="0px"
	 width="376.475px" height="362.464px" viewBox="0 0 376.475 362.464" enable-background="new 0 0 376.475 362.464"
	 xml:space="preserve">
<path fill="#002B64" d="M21.589,346.035l-4.943,16.356H0l21.663-63.824h20.936l22.098,63.824h-17.23l-5.452-16.356H21.589z
	 M39.617,335.277l-4.435-13.521c-1.163-3.779-2.399-8.65-3.489-12.285h-0.291c-0.945,3.78-2.108,8.649-3.126,12.285l-4.289,13.521
	H39.617z"/>
<path fill="#002B64" d="M84.76,299.512c5.16-0.872,12.721-1.453,21.371-1.453c10.541,0,17.883,1.453,22.972,5.088
	c4.288,3.054,6.614,7.487,6.614,13.376c0,8.068-6.396,13.666-12.502,15.629v0.291c4.942,1.817,7.705,5.96,9.449,11.85
	c2.182,7.27,4.289,15.629,5.67,18.101h-16.429c-1.019-1.817-2.835-6.979-4.871-14.902c-2.034-8.067-5.017-10.104-11.704-10.249
	h-4.725v25.078h-15.92v-62.807L84.76,299.512L84.76,299.512z M100.606,326.916h6.323c7.996,0,12.722-3.635,12.722-9.158
	c0-5.742-4.435-8.796-11.776-8.796c-3.925,0-6.105,0.219-7.269,0.509V326.916z"/>
<path fill="#002B64" d="M157.67,298.567h15.92v28.204h0.219c1.6-2.471,3.271-4.725,4.943-6.979l15.991-21.227h19.772l-23.479,27.188
	l24.644,36.638h-18.683l-17.446-27.551l-6.033,6.761v20.862h-15.92v-63.896H157.67L157.67,298.567z"/>
<path fill="#002B64" d="M250.571,346.035l-4.943,16.356h-16.646l21.662-63.824h20.936l22.1,63.824h-17.229l-5.452-16.356H250.571z
	 M268.599,335.277l-4.435-13.521c-1.163-3.779-2.398-8.65-3.489-12.285h-0.29c-0.945,3.78-2.108,8.649-3.126,12.285l-4.289,13.521
	H268.599z"/>
<path fill="#002B64" d="M313.741,299.512c5.888-0.944,13.594-1.453,21.59-1.453c13.594,0,22.391,1.963,29.149,6.615
	c7.342,4.941,11.994,12.865,11.994,24.278c0,12.212-4.942,20.646-11.703,25.878c-7.487,5.599-18.974,8.216-32.857,8.216
	c-8.286,0-14.319-0.51-18.173-0.945V299.512L313.741,299.512z M329.733,351.561c1.382,0.29,3.708,0.29,5.598,0.29
	c14.611,0.073,24.207-7.123,24.207-22.316c0-13.738-8.649-20.28-22.535-20.28c-3.488,0-5.888,0.291-7.27,0.582V351.561z"/>
<path fill="#002B64" d="M126.848-0.999v47.104c0,85.995-16.937,146.549-50.303,179.914l-40.344,40.345l16.792,16.792l40.345-40.345
	c38.019-38.018,57.281-104.168,57.281-196.706V-0.999H126.848L126.848-0.999z"/>
<path fill="#002B64" d="M157.742-0.999v47.104c0,88.031-5.742,149.965-17.301,184.566l-13.448,40.345l22.535,7.487l13.448-40.346
	c12.285-36.928,18.537-101.479,18.537-192.054V-1.001h-23.771V-0.999z"/>
<path fill="#002B64" d="M189.146-0.999v47.104c0,90.502,6.252,155.126,18.537,192.054l13.447,40.346l22.534-7.487l-13.446-40.345
	c-11.56-34.528-17.374-96.608-17.374-184.566V-0.999H189.146L189.146-0.999z"/>
<path fill="#002B64" d="M220.55-0.999v47.104c0,92.538,19.264,158.688,57.281,196.706l40.346,40.345l16.792-16.792l-40.346-40.345
	c-33.438-33.365-50.376-93.919-50.376-179.914V-0.999H220.55z"/>
</svg>
